<svg
  id="logo"
  class="logo"
  style="width: 100%; max-width: 202px; height: auto;"
  role="img"
  aria-labelledby="logo-desc"
  version="1.1"
  viewBox="0 0 202 57.000003"
  xml:space="preserve"
  xmlns="http://www.w3.org/2000/svg"
  fill="currentColor"
>
    													<desc id="logo-desc">Politécnico de Leiria</desc>
    													<g transform="matrix(1.25 0 0 -1.25 -605.56 170.38)">
    														<g transform="matrix(.020087 0 0 .020087 484.45 90.708)">
    															<path
        d="m2616.7 1791.4c0 26 3.97 53.49-12.86 74.26-19.67 24.81-56.29 19.55-62.8 19.55h-83.4v-270.08h82.24c35.17 0 54.73 3.99 65.26 18.38 11.56 15.64 11.56 45.57 11.56 63.95v93.94zm134.38-262.3c-27.26-33.98-66.34-45.64-149.89-45.64h-143.55v-383.71h-170.96v921.31h341.82c5.22 0 27.49 0 45.62-3.96 54.89-11.87 81.25-46.96 90.06-65.28 19.6-39.1 19.6-97.95 19.6-138.29v-121.29c0-86.08-4.01-127.85-32.7-163.14"
      />
    															<path
        d="m3215.6 1797.8c0 5.26 3.88 47.03-10.41 74.38-7.83 17.09-27.55 40.48-70.46 40.48-9.04 0-33.94-1.39-54.99-16.99-37.57-26.11-32.37-66.61-32.37-104.33v-465.82c0-27.53-1.46-61.22 15.54-84.77 19.71-27.44 61.3-27.44 69.11-27.44 7.85 0 32.71 1.25 53.52 15.66 31.43 22.22 30.06 58.66 30.06 92.54v476.29zm117.5-656.4c-54.75-50.79-129.27-61.29-199.72-61.29-67.68 0-136.95 9.25-191.79 53.57-27.47 22.16-40.33 44.35-45.73 57.37-15.61 32.59-19.43 71.8-19.43 105.72v516.7c0 19.61-3.96 112.21 57.3 167.04 34.05 29.9 97.99 59.94 201 59.94 133.19 0 203.57-54.61 230.97-108.18 14.21-30.18 20.98-58.74 20.98-122.76v-512.74c0-58.69-9.16-112.23-53.58-155.37"
      />
    															<path d="m3509.2 1099.7v921.31h169.7v-781.69h249.05v-139.62h-418.75" />
    															<path d="m3998.4 1099.7h168.25v921.32h-168.25v-921.32z" />
    															<path
        d="m4575 1887.8v-788.02h-170.74v788.02h-169.77v133.29h511.63v-133.29h-171.12"
      />
    															<path
        d="m5059 2095.4h-119.93l83.52 174.75h202.22l-165.81-174.75zm-245.32-995.66v921.31h446.28v-139.61h-276.59v-216.62h260.87v-139.48h-260.87v-283.42h289.71v-142.18h-459.4"
      />
    															<path
        d="m5840.5 1205.6c-44.25-127.98-215.39-125.39-234.82-125.39-39.13 0-75.52 6.57-87.54 9.25-67.82 13-127.71 43.05-155.01 109.6-13.15 33.76-13.15 62.54-13.15 96.51v500.99c0 15.69 1.35 32.68 2.6 48.37 2.82 58.74 18.24 104.41 65.31 142.26 37.91 29.95 88.64 53.36 190.51 53.36 58.74 0 121.4-7.8 172.2-41.63 24.75-16.99 45.76-40.55 57.49-67.94 14.2-29.99 15.66-48.17 15.66-104.32v-141h-167.2v116.27c0 70.35-11.77 108.32-87.55 108.32-65.13 0-77.97-40.52-77.97-100.64v-493.19c0-60.01 12.84-104.4 83.31-104.4 75.75 0 82.21 43.12 82.21 113.6v120h167.2v-130.45c0-36.54-1.46-75.76-13.25-109.57"
      />
    															<path
        d="m6263.1 1099.7-162.96 690.35 14.46-690.35h-159.2v921.31h217.8l165.74-675.87-17.02 675.87h155.15v-921.31h-213.97"
      />
    															<path d="m6607.5 1099.7h168.47v921.32h-168.47v-921.32z" />
    															<path
        d="m7389 1205.6c-44.28-127.98-215.36-125.39-234.58-125.39-39.17 0-75.95 6.57-87.66 9.25-67.63 13-127.73 43.05-155.08 109.6-13.16 33.76-13.16 62.54-13.16 96.51v500.99c0 15.69 1.29 32.68 2.54 48.28 2.78 58.83 18.5 104.5 65.31 142.28 37.78 30.02 88.8 53.43 190.56 53.43 58.58 0 121.23-7.8 172.13-41.77 24.83-16.85 45.67-40.41 57.46-67.8 14.27-29.99 15.66-48.17 15.66-104.32v-141h-167.35v116.27c0 70.35-11.57 108.32-86.99 108.32-65.23 0-78.4-40.52-78.4-100.64v-493.19c0-60.01 13.17-104.4 83.41-104.4 75.66 0 81.98 43.12 81.98 113.6v120h167.35v-130.45c0-36.54-1.39-75.76-13.18-109.57"
      />
    															<path
        d="m7835.2 1797.8c0 5.26 4.02 46.94-10.47 74.38-7.52 17.09-27.25 40.48-70.31 40.48-9.18 0-34.02-1.39-54.81-16.99-37.71-26.11-32.52-66.61-32.52-104.33v-465.82c0-27.53-1.32-61.22 15.48-84.77 19.74-27.44 61.42-27.44 69.27-27.44 7.74 0 32.6 1.25 53.54 15.66 31.34 22.22 29.82 58.66 29.82 92.54v476.29zm117.55-656.4c-54.77-50.79-129.2-61.29-199.58-61.29-67.68 0-137.04 9.25-191.95 53.57-27.23 22.04-40.27 44.35-45.46 57.37-15.66 32.59-19.61 71.8-19.61 105.72v516.7c0 19.61-4.07 112.21 57.26 167.04 34 29.9 97.96 59.94 201.01 59.94 133.06 0 203.58-54.7 231.17-108.18 14.26-30.18 20.58-58.74 20.58-122.76v-512.74c0-58.69-9.14-112.23-53.42-155.37"
      />
    															<path
        d="m2504.1 446.72c0 18.351 0.92 36.832-15.02 50.359-14.26 11.75-32.71 10.094-49.52 10.094h-42.81v-420.59h38.55c10.15 0 21.07 0 31.01 1.8594 35.42 6.5586 37.79 32.668 37.79 62.161v296.12zm108.64-319.74c-3.45-63.011-32.08-95.039-55.46-108.36-30.26-17.711-61.58-18.621-94.16-18.621h-175.85v593.76h200.84c15.99 0 49.81-2.453 81.82-29.492 40.06-34.481 43.62-78.329 43.62-126.87v-277.51c0-11.012 0-22-0.81-32.911"
      />
    															<path
        d="m2690.1 0.058594v593.7h287.54v-90.09h-178.22v-139.55h168.22v-89.992h-168.22v-182.42h186.46v-91.652h-295.78"
      />
    															<path d="m3362.6 0.058594v921.11h169.57v-781.57h249.21v-139.54h-418.78" />
    															<path
        d="m3852 0.058594v921.11h446.2v-139.55h-276.7v-216.68h261.05v-139.56h-261.05v-283.03h289.56v-142.29h-459.06"
      />
    															<path d="m4395.9 0.058594h168.19v921.11h-168.19v-921.11z" />
    															<path
        d="m5031.4 713.75c0 57.469-19.63 75.781-78.4 75.781h-88.71v-245.27h88.71c58.77 0 78.4 20.679 78.4 87.359v82.129zm27.23-713.75l-130.39 408.42h-63.95v-408.42h-169.66v921.17h339.31c112.15 0 165.68-52.141 165.68-164.31v-166.85c0-91.5-27.34-133.28-108.34-158.08l143.59-431.93h-176.24"
      />
    															<path d="m5319.6 0.058594h168.22v921.11h-168.22v-921.11z" />
    															<path
        d="m5842.9 687.69-61.36-395.29h117.2l-55.84 395.29zm96.55-687.63-22.34 150.04h-156.62l-24.66-150.04h-169.76l178.72 921.11h194.66l172.2-921.11h-172.2"
      />
    															<path
        d="m747.15 897.73c-64.71 0-117.28 52.551-117.28 117.27 0 65.05 52.575 117.71 117.28 117.71 64.79 0 117.4-52.66 117.4-117.71 0-64.719-52.605-117.27-117.4-117.27m267.92 578.79c-254.19 0-460.18-206.44-460.18-461.52 0-254.59 205.98-461.15 460.18-461.15 254.3 0 460.46 206.56 460.46 461.15 0 255.08-206.16 461.52-460.46 461.52"
      />
    															<path
        d="m1015.1 346.39c-368.57 0-667.24 299.4-667.24 668.61 0 369.59 298.68 668.95 667.24 668.95 368.68 0 667.37-299.36 667.37-668.95 0-369.21-298.69-668.61-667.37-668.61m-1015.1-346.39h2030.3v2030.3h-2030.3v-2030.3"
      />
    														</g>
    													</g>
    												</svg>
