<svg xmlns="http://www.w3.org/2000/svg" height="512" width="512" fill="currentColor">
    <style>
        rect{
            fill: #f9f9f9;
        }
        path {
            fill: #1c1c1c;
        }
        @media (prefers-color-scheme: dark) {
            rect{
                fill: #1c1c1c;
            }
            path {
                fill: #f9f9f9;
            }
        }
    </style>
    <rect width="512" height="512" />
    <path d="M188.415 285.604c-16.32 0-29.577-13.253-29.577-29.574 0-16.405 13.258-29.685 29.577-29.685 16.34 0 29.605 13.28 29.605 29.685 0 16.32-13.266 29.574-29.605 29.574M255.98 139.64c-64.102 0-116.046 52.06-116.046 116.39 0 64.204 51.945 116.296 116.046 116.296 64.13 0 116.118-52.09 116.118-116.296 0-64.328-51.99-116.39-116.118-116.39"/>
    <path d="M255.98 424.645c-92.945 0-168.264-75.504-168.264-168.614 0-93.206 75.32-168.7 168.264-168.7 92.973 0 168.297 75.495 168.297 168.7 0 93.1-75.323 168.614-168.297 168.614M0 512h512.007V-.005H0V512"/>
</svg>
